<?xml version="1.0" encoding="utf-8"?>
<!-- Generator: Adobe Illustrator 25.4.1, SVG Export Plug-In . SVG Version: 6.00 Build 0)  -->
<svg version="1.1" id="Ebene_1" xmlns="http://www.w3.org/2000/svg" xmlns:xlink="http://www.w3.org/1999/xlink" x="0px" y="0px"
	 viewBox="0 0 32 32" style="enable-background:new 0 0 32 32;" xml:space="preserve">
<style type="text/css">
	.st0{fill:#5560A9;}
</style>
<g>
	<path class="st0" d="M29.4,4.1c0,0.1,0,0.2-0.1,0.3c-0.1,0.2-0.3,0.4-0.5,0.5C28.7,5,28.5,5,28.4,5.1c-0.2,0-0.4,0-0.6,0
		c-0.1,0-0.2-0.1-0.3-0.1c-0.2-0.1-0.3-0.3-0.4-0.5C27,4.4,27,4.3,27,4.2c0-0.3,0-0.5,0.1-0.8c0.1-0.2,0.3-0.4,0.5-0.5
		c0.2-0.1,0.4-0.2,0.6-0.2c0.4,0,0.8,0.2,1.1,0.6c0.1,0.1,0.1,0.2,0.1,0.4c0,0,0,0,0,0C29.4,3.9,29.4,4,29.4,4.1z"/>
	<path class="st0" d="M19.2,0c0.1,0,0.2,0,0.3,0.1c0.2,0.1,0.4,0.3,0.5,0.5c0.1,0.2,0.1,0.4,0.1,0.6C20,1.7,19.7,2,19.3,2.2
		c-0.2,0.1-0.4,0.1-0.6,0c-0.2,0-0.4-0.1-0.6-0.3c-0.2-0.2-0.3-0.4-0.3-0.7c0-0.2,0-0.3,0-0.5c0-0.2,0.1-0.3,0.3-0.4
		c0.1-0.1,0.3-0.2,0.5-0.3c0,0,0,0,0,0C18.8,0,19,0,19.2,0z"/>
	<path class="st0" d="M18.9,8.3c-0.5,0-0.9-0.3-1.1-0.7c0,0,0-0.1-0.1,0c-0.1,0-0.3,0-0.4,0.1c-0.1,0-0.2,0-0.3,0.1
		c-0.2,0-0.4,0.1-0.7,0.2C16.2,7.9,16,7.9,15.8,8c-0.2,0.1-0.4,0.2-0.6,0.2c-0.2,0.1-0.3,0.1-0.5,0.2c-0.1,0-0.1,0.1-0.1,0.2
		c0.1,0.2,0,0.3,0,0.5c-0.1,0.2-0.2,0.4-0.3,0.6c-0.3,0.3-0.6,0.4-0.9,0.4c-0.2,0-0.4-0.1-0.6-0.2c0,0-0.1,0-0.1,0
		c-0.2,0.2-0.4,0.4-0.6,0.6c-0.2,0.2-0.3,0.4-0.5,0.6c-0.2,0.3-0.5,0.6-0.6,1c0,0.1-0.1,0.2-0.1,0.2c0,0,0,0.1,0,0.1
		c0.2,0.1,0.3,0.3,0.4,0.5c0,0.1,0.1,0.2,0.1,0.2c0,0.2,0,0.3,0,0.5c-0.1,0.2-0.2,0.4-0.4,0.6c-0.2,0.2-0.5,0.3-0.8,0.3
		c-0.1,0-0.1,0.1-0.1,0.1c-0.1,0.3-0.1,0.6-0.1,0.9c0,0.2,0,0.5,0,0.7c0,0.3,0,0.6,0.1,0.9c0,0.1,0,0.3,0.1,0.4c0,0.1,0,0.1,0.1,0.1
		c0.2,0,0.4,0,0.5,0.1c0.1,0.1,0.3,0.1,0.4,0.2c0.2,0.2,0.3,0.4,0.3,0.6c0,0.2,0,0.4-0.1,0.6c-0.1,0.2-0.3,0.4-0.5,0.5
		c-0.1,0,0,0.1,0,0.1c0.1,0.3,0.3,0.5,0.4,0.7c0.2,0.3,0.3,0.5,0.5,0.8c0.2,0.3,0.5,0.6,0.7,0.8c0,0,0.1,0.1,0.1,0.1
		c0,0,0.1,0,0.1,0c0.1-0.1,0.3-0.2,0.4-0.2c0.1,0,0.2,0,0.4,0c0.3,0,0.5,0,0.7,0.2c0.2,0.1,0.3,0.3,0.4,0.5c0.1,0.2,0.1,0.3,0,0.5
		c0,0.1,0,0.1,0,0.2c0,0.1,0,0.2-0.1,0.3c0,0,0,0.1,0,0.1c0.3,0.2,0.7,0.3,1,0.5c0.3,0.1,0.5,0.2,0.8,0.3c0.2,0.1,0.4,0.1,0.6,0.2
		c0.2,0,0.4,0.1,0.7,0.1c0,0,0,0,0.1-0.1c0-0.1,0-0.1,0-0.2c0-0.2,0.2-0.3,0.3-0.5c0.1-0.1,0.2-0.2,0.4-0.3c0,0,0.1,0,0.1,0
		c0.3,0,0.5,0,0.8,0c0.1,0,0.2,0.1,0.3,0.2c0.2,0.2,0.4,0.3,0.5,0.6c0,0.1,0.1,0.2,0.1,0.3c0,0.1,0,0.1,0.1,0.1c0.1,0,0.3,0,0.4-0.1
		c0.2,0,0.5-0.1,0.7-0.1c0.2,0,0.4-0.1,0.5-0.1c0.3-0.1,0.5-0.2,0.8-0.3c0.3-0.1,0.5-0.2,0.8-0.3c0,0,0.1,0,0-0.1
		c-0.2-0.2-0.2-0.5-0.2-0.8c0.1-0.4,0.3-0.7,0.6-0.9c0.2-0.1,0.5-0.2,0.8-0.1c0.4,0.1,0.6,0.2,0.9,0.5c0.1,0.1,0.1,0.2,0.1,0.4
		c0,0.2,0,0.4,0,0.5c0,0.1-0.1,0.2-0.1,0.3c-0.2,0.2-0.3,0.4-0.6,0.5c-0.1,0-0.2,0-0.2,0c-0.2,0-0.3,0-0.5,0c-0.1,0-0.2,0-0.3-0.1
		c0,0-0.1,0-0.1,0c-0.2,0.1-0.4,0.2-0.5,0.3c-0.2,0.1-0.5,0.2-0.7,0.3c-0.3,0.1-0.6,0.2-1,0.3c-0.2,0.1-0.4,0.1-0.7,0.1
		c-0.2,0-0.4,0.1-0.7,0.1c-0.1,0-0.1,0-0.1,0.1c-0.2,0.3-0.4,0.5-0.7,0.6c-0.4,0.1-0.7,0-1-0.2c-0.2-0.1-0.4-0.3-0.5-0.5
		c0,0,0,0,0,0c-0.1,0-0.2,0-0.3,0c-0.2,0-0.4-0.1-0.6-0.1c-0.1,0-0.3-0.1-0.4-0.1c-0.3-0.1-0.5-0.2-0.8-0.2
		c-0.3-0.1-0.5-0.2-0.8-0.3c-0.2-0.1-0.5-0.2-0.7-0.4c0,0-0.1,0-0.1,0c-0.2,0.2-0.5,0.2-0.8,0.2c-0.2,0-0.4-0.1-0.6-0.2
		c-0.2-0.1-0.4-0.3-0.5-0.6c-0.1-0.2-0.1-0.3,0-0.5c0-0.1,0-0.1,0.1-0.2c0,0,0-0.1,0-0.1c-0.2-0.2-0.3-0.3-0.5-0.5
		c-0.3-0.3-0.5-0.6-0.7-0.9c-0.2-0.3-0.4-0.7-0.6-1c-0.1-0.1-0.1-0.2-0.2-0.3c0-0.1-0.1-0.1-0.1-0.1c-0.3,0-0.6-0.1-0.9-0.3
		c-0.1-0.1-0.3-0.3-0.3-0.4c0,0,0,0,0-0.1c0-0.2,0-0.3,0-0.5c0-0.3,0.1-0.6,0.4-0.7c0.1,0,0.1-0.1,0.2-0.1c0.1,0,0.1-0.1,0.1-0.1
		c-0.1-0.2-0.1-0.5-0.1-0.8c0-0.4,0-0.7,0-1.1c0-0.2,0-0.5,0.1-0.7c0-0.1,0-0.3,0.1-0.4c0-0.1,0-0.2,0.1-0.3c0-0.1,0-0.1,0-0.1
		c-0.2-0.1-0.3-0.2-0.4-0.3c-0.1-0.2-0.2-0.3-0.2-0.5c0-0.1,0-0.3,0-0.4c0-0.1,0.1-0.3,0.1-0.4c0.2-0.2,0.4-0.4,0.6-0.5
		c0.1,0,0.2,0,0.2,0c0.1,0,0.3,0,0.4,0c0.1,0,0.1,0,0.1-0.1c0.1-0.3,0.3-0.5,0.4-0.7c0.2-0.3,0.5-0.7,0.8-1c0.2-0.3,0.5-0.5,0.8-0.8
		c0,0,0.1-0.1,0-0.1c-0.1-0.2-0.2-0.4-0.2-0.6c0-0.4,0.2-0.7,0.5-1c0.3-0.2,0.6-0.2,0.9-0.2c0.2,0,0.5,0.1,0.7,0.3c0,0,0,0,0,0
		c0.1,0.1,0.1,0.1,0.3,0C14.8,8,15,7.8,15.3,7.7c0.3-0.1,0.5-0.2,0.8-0.3c0.2-0.1,0.5-0.1,0.7-0.2c0.2-0.1,0.5-0.1,0.7-0.1
		c0.1,0,0.1,0,0.2,0c0.1,0,0.1,0,0.1-0.1c0-0.2,0.1-0.4,0.3-0.6c0.1-0.1,0.3-0.2,0.4-0.3C18.6,6,18.9,6,19.1,6.1
		c0.4,0.1,0.7,0.3,0.9,0.6C20,6.8,20,6.9,20.1,7c0,0.1,0,0.1,0.1,0.1c0.2,0,0.4,0,0.5,0.1c0.3,0.1,0.6,0.1,1,0.2
		c0.4,0.1,0.7,0.2,1.1,0.4c0.3,0.1,0.5,0.2,0.8,0.3c0,0,0.1,0,0.1,0c0.1-0.1,0.3-0.2,0.4-0.3c0.1,0,0.2,0,0.3,0c0.1,0,0.3,0,0.4,0
		c0.2,0,0.3,0.1,0.5,0.2c0.1,0.1,0.2,0.2,0.2,0.3c0.2,0.2,0.2,0.5,0.2,0.8c0,0.3-0.2,0.5-0.4,0.7c-0.2,0.2-0.5,0.3-0.8,0.2
		c-0.4,0-0.8-0.2-1-0.6c-0.1-0.1-0.1-0.3-0.2-0.4c0-0.2,0-0.3,0.1-0.5c0-0.1,0-0.1,0-0.1c-0.2-0.1-0.5-0.2-0.7-0.3
		c-0.3-0.1-0.5-0.2-0.8-0.3c-0.2-0.1-0.4-0.1-0.6-0.2c-0.2,0-0.4-0.1-0.6-0.1c-0.1,0-0.2,0-0.3,0c-0.1,0-0.1,0-0.1,0.1
		c0,0.2-0.2,0.4-0.4,0.5C19.4,8.3,19.2,8.3,18.9,8.3z"/>
	<path class="st0" d="M16,26.1c0.1,0.2,0.2,0.4,0.3,0.6c0.3,0.4,0.5,0.7,0.8,1.1c0.3,0.4,0.5,0.7,0.8,1.1c0.2,0.2,0.3,0.5,0.5,0.7
		c0,0,0.1,0.1,0.1,0.1c0.2,0,0.4,0,0.6,0c0,0,0.1,0,0.1,0c0.3-0.5,0.6-0.9,0.9-1.3c0.3-0.4,0.5-0.8,0.8-1.1c0.2-0.2,0.3-0.5,0.5-0.7
		c0.1-0.1,0.1-0.2,0.1-0.3c0-0.1,0-0.1-0.1-0.1c-0.1,0-0.2,0-0.3-0.1c-0.1,0-0.1-0.1-0.2-0.1c0,0,0,0,0-0.1c0.1-0.2,0.2-0.3,0.3-0.5
		c0,0,0,0,0.1,0c0.2,0.1,0.3,0.1,0.5,0.2c0.1,0,0.1,0,0.2,0.1c0.1,0,0.1,0,0.1,0c0.1-0.2,0.3-0.4,0.4-0.6c0,0,0.1-0.1,0.1,0
		c0.1,0.1,0.3,0.2,0.4,0.3c0,0,0.1,0.1,0,0.2c0,0.2-0.1,0.3-0.2,0.5c0,0.1,0,0.1,0,0.1c0.2,0,0.4,0.1,0.6,0.2
		c0.3,0.1,0.5,0.2,0.8,0.3c0.3,0.1,0.6,0.2,1,0.3c0.1,0,0.2,0.1,0.4,0.1c0,0,0.1,0.1,0.1,0.1c0,0.1,0,0.2-0.1,0.4
		c0,0.1-0.1,0.1-0.1,0.2c0,0.1-0.1,0.1-0.1,0.1c-0.4-0.1-0.7-0.2-1.1-0.4c-0.3-0.1-0.5-0.2-0.8-0.3c-0.3-0.1-0.5-0.2-0.8-0.3
		c-0.1,0-0.2-0.1-0.3-0.1c-0.1,0-0.2,0-0.2,0.1c-0.2,0.2-0.3,0.4-0.5,0.7c-0.2,0.3-0.4,0.5-0.5,0.8c-0.2,0.3-0.4,0.6-0.6,0.9
		c-0.2,0.3-0.4,0.6-0.6,0.9c0,0,0,0.1,0,0.1c0.1,0.1,0.2,0.3,0.3,0.4c0.1,0.1,0.1,0.1,0.2,0.1c0.2,0,0.5-0.1,0.7-0.1
		c0.2,0,0.4-0.1,0.6-0.1c0.2,0,0.5-0.1,0.7-0.1c0.2-0.1,0.4-0.2,0.7-0.2c0.3-0.1,0.6-0.2,1-0.3c0.5-0.2,0.9-0.4,1.3-0.6
		c0.1,0,0.1,0,0.2-0.1c0,0,0,0,0.1,0c0.1,0.1,0.1,0.2,0.2,0.3c0,0,0,0.1,0,0.1c-0.5,0.3-1,0.5-1.6,0.7c-0.4,0.1-0.7,0.2-1.1,0.3
		c-0.3,0.1-0.7,0.2-1,0.3c-0.3,0.1-0.5,0.1-0.8,0.2c-0.2,0-0.4,0.1-0.6,0.1c-0.2,0-0.4,0-0.6,0c-0.1,0-0.1,0-0.2,0.2
		c0,0.1-0.1,0.3-0.1,0.4c-0.1,0.3-0.3,0.5-0.6,0.6c-0.1,0-0.2,0-0.3,0c-0.2,0-0.3,0-0.5,0c-0.1,0-0.3-0.1-0.4-0.2
		c-0.3-0.2-0.4-0.5-0.5-0.8c0-0.1-0.1-0.2-0.3-0.2c-0.2,0-0.3,0-0.5,0c-0.2,0-0.5,0-0.7-0.1c-0.2,0-0.4-0.1-0.6-0.1
		c-0.2,0-0.5-0.1-0.7-0.1c-0.4-0.1-0.7-0.2-1.1-0.3c-0.4-0.1-0.8-0.3-1.2-0.4c-0.3-0.1-0.6-0.2-0.8-0.4c0,0-0.1,0,0-0.1
		c0-0.1,0.1-0.1,0.1-0.2c0.1-0.1,0.1-0.1,0.2,0c0.3,0.2,0.7,0.3,1,0.4c0.3,0.1,0.6,0.2,0.9,0.3c0.3,0.1,0.6,0.2,0.9,0.3
		c0.2,0,0.4,0.1,0.6,0.1c0.2,0,0.4,0.1,0.6,0.1c0.2,0,0.4,0.1,0.7,0.1c0.2,0,0.4,0,0.5,0c0.1,0,0.2,0,0.2-0.1
		c0.1-0.1,0.1-0.2,0.2-0.3c0-0.1,0-0.2-0.1-0.3c-0.2-0.3-0.4-0.6-0.6-0.9c-0.3-0.5-0.6-0.9-1-1.4c-0.2-0.3-0.4-0.6-0.6-0.9
		c-0.1-0.1-0.2-0.1-0.3-0.1c-0.4,0.2-0.8,0.3-1.2,0.4c-0.3,0.1-0.5,0.2-0.8,0.3c-0.3,0.1-0.5,0.2-0.8,0.3c-0.1,0-0.1,0-0.2,0.1
		c0,0,0,0-0.1,0c-0.1-0.2-0.2-0.4-0.2-0.6c0,0,0,0,0,0c0.2-0.1,0.4-0.1,0.6-0.2c0.3-0.1,0.6-0.2,1-0.3c0.3-0.1,0.5-0.2,0.8-0.3
		c0.2-0.1,0.3-0.1,0.5-0.1c0.1,0,0.1,0,0.1-0.1c0-0.1-0.1-0.3-0.1-0.4c0,0,0-0.1-0.1-0.1c0-0.1,0-0.1,0-0.1c0.2-0.1,0.3-0.2,0.5-0.3
		c0,0,0.1,0,0.1,0c0.1,0.1,0.2,0.2,0.2,0.3c0.1,0.1,0.1,0.2,0.2,0.2c0.1,0,0.1,0.1,0.2,0c0.2-0.1,0.4-0.1,0.5-0.2c0.1,0,0.1,0,0.1,0
		c0.1,0.1,0.2,0.3,0.2,0.4c0,0.1,0,0.1,0,0.1C16.4,26,16.2,26.1,16,26.1z"/>
	<path class="st0" d="M5.7,18.9C5.7,18.9,5.6,18.9,5.7,18.9c-0.2-0.1-0.4-0.3-0.5-0.4c0,0,0-0.1,0-0.1c0.1-0.2,0.3-0.3,0.4-0.5
		c0.2-0.3,0.5-0.5,0.7-0.8c0.2-0.3,0.4-0.5,0.7-0.8C7,16.2,7.1,16.1,7.2,16c0,0,0-0.1,0-0.1c-0.1-0.2-0.2-0.4-0.4-0.5
		c-0.2-0.2-0.3-0.4-0.5-0.6c-0.2-0.2-0.3-0.4-0.5-0.6c-0.2-0.2-0.4-0.5-0.6-0.8c0,0,0,0,0-0.1c0.1-0.1,0.3-0.2,0.4-0.3
		c0,0,0.1,0,0.1,0c0.2,0.2,0.4,0.5,0.6,0.7C6.6,14,6.8,14.3,7,14.5c0.2,0.3,0.4,0.5,0.6,0.8c0,0.1,0.1,0.1,0.1,0
		c0.2-0.1,0.3-0.2,0.4-0.4c0,0,0,0,0.1,0c0.2,0.1,0.3,0.2,0.4,0.4c0.1,0,0.1,0.1,0,0.1c-0.1,0.1-0.2,0.2-0.3,0.4
		c-0.1,0.1-0.1,0.2,0,0.4c0.1,0.2,0.2,0.3,0.3,0.5c0,0,0,0,0,0.1c-0.2,0.1-0.3,0.2-0.5,0.3c0,0-0.1,0-0.1,0
		c-0.1-0.1-0.3-0.3-0.4-0.4c0,0-0.1,0-0.1,0c-0.2,0.3-0.5,0.6-0.7,0.9c-0.2,0.2-0.4,0.4-0.5,0.7C6.2,18.4,5.9,18.7,5.7,18.9
		C5.7,18.9,5.7,18.9,5.7,18.9z"/>
	<path class="st0" d="M16.4,6.6c-0.2,0-0.4-0.1-0.5-0.1c-0.1,0-0.1,0-0.2-0.1c0,0-0.1,0-0.1,0c-0.1,0.2-0.3,0.4-0.4,0.6
		c0,0,0,0-0.1,0c-0.2-0.1-0.4-0.2-0.5-0.4c0,0,0,0,0-0.1c0.1-0.1,0.2-0.3,0.2-0.4c0,0,0-0.1,0-0.1C14.5,6,14.2,5.9,14,5.9
		c-0.3-0.1-0.5-0.2-0.8-0.3c-0.2-0.1-0.4-0.1-0.6-0.2c-0.2-0.1-0.4-0.1-0.6-0.2c-0.1,0-0.1-0.1-0.1-0.2c0-0.2,0-0.3,0.1-0.4
		c0-0.1,0.1-0.1,0.2-0.1c0.3,0,0.5,0.1,0.8,0.3c0.2,0.1,0.3,0.1,0.5,0.2C13.8,5,14,5.1,14.3,5.2c0.3,0.1,0.6,0.2,0.8,0.3
		c0,0,0,0,0.1,0c0.1,0,0.1,0,0.2,0c0.2-0.2,0.3-0.4,0.5-0.6c0.2-0.2,0.3-0.5,0.5-0.7c0.2-0.3,0.4-0.5,0.5-0.8
		C16.9,3.2,17,3.1,17.1,3c0-0.1,0.1,0,0.2,0c0.2,0.1,0.3,0.2,0.5,0.3c0,0,0,0.1,0,0.1c-0.2,0.3-0.5,0.7-0.7,1
		c-0.2,0.3-0.4,0.6-0.6,0.9c-0.1,0.2-0.2,0.4-0.3,0.6c0,0.1,0,0.1,0,0.1c0.1,0,0.2,0.1,0.3,0.1c0.1,0,0.1,0.1,0.1,0.2
		c0,0.1,0,0.2-0.1,0.4C16.5,6.6,16.5,6.6,16.4,6.6z"/>
	<path class="st0" d="M25.9,5c0,0.1,0,0.1-0.1,0.2c-0.3,0.1-0.6,0.2-0.9,0.3c-0.2,0.1-0.4,0.1-0.6,0.2c-0.2,0.1-0.4,0.2-0.6,0.2
		c-0.2,0.1-0.4,0.1-0.6,0.2c-0.1,0-0.1,0-0.1,0.2c0.1,0.2,0.2,0.3,0.2,0.4c0,0,0,0.1,0,0.1c-0.2,0.1-0.3,0.2-0.5,0.4
		c0,0-0.1,0-0.1,0c-0.1-0.2-0.2-0.3-0.4-0.5c-0.1-0.1-0.1-0.1-0.3-0.1c-0.2,0-0.3,0.1-0.5,0.2c-0.1,0-0.1,0-0.1,0
		c-0.1-0.2-0.1-0.3-0.2-0.5c0,0,0-0.1,0-0.1c0.1-0.1,0.3-0.1,0.4-0.2c0,0,0.1,0,0-0.1c-0.1-0.2-0.2-0.4-0.3-0.6
		c-0.3-0.5-0.6-0.9-1-1.4c-0.1-0.1-0.2-0.3-0.3-0.4c-0.1-0.1,0-0.2,0.1-0.3c0.1-0.1,0.2-0.1,0.4-0.2c0.1,0,0.2,0,0.2,0.1
		c0.1,0.2,0.3,0.4,0.4,0.5c0.3,0.4,0.5,0.8,0.8,1.1c0.1,0.2,0.3,0.4,0.4,0.6c0.1,0.1,0.1,0.2,0.2,0.2c0,0,0.1,0,0.1,0
		c0.2,0,0.3-0.1,0.5-0.2c0.2-0.1,0.4-0.1,0.5-0.2c0.3-0.1,0.5-0.2,0.8-0.3c0.3-0.1,0.7-0.2,1-0.4c0,0,0.1,0,0.1,0
		c0.1,0,0.1,0,0.2,0.1C25.8,4.7,25.9,4.9,25.9,5z"/>
	<path class="st0" d="M9.4,8.8c0-0.2,0-0.4,0-0.6c0-0.6,0-1.2,0-1.8c0-0.1,0-0.1,0.1-0.1c0.2,0,0.3,0,0.5,0c0,0,0.1,0,0.1,0.1
		c0.1,0.3,0.1,0.6,0.1,0.9c0,0.2,0,0.4,0,0.5c0,0.3,0,0.6,0,0.8c0,0.2,0,0.4,0.1,0.6c0,0,0,0.1,0,0.1c0,0,0,0.1,0.1,0
		c0.2-0.1,0.3-0.1,0.5-0.2c0.1,0,0.1,0,0.1,0.1c0.1,0.2,0.1,0.4,0.1,0.5c0,0,0,0.1-0.1,0.1c-0.2,0.1-0.4,0.1-0.7,0.2
		c-0.1,0-0.1,0-0.1,0.1c0,0.2,0,0.5,0,0.7c0,0.1,0,0.1-0.1,0.1c-0.2,0-0.4,0-0.6,0c0,0-0.1,0-0.1-0.1c0-0.2,0-0.4,0-0.6
		c0-0.1,0-0.1-0.1,0c-0.2,0.1-0.4,0.1-0.6,0.2c-0.2,0.1-0.4,0.1-0.6,0.2c-0.3,0.1-0.6,0.2-0.9,0.2c-0.2,0.1-0.4,0.1-0.6,0.1
		c-0.1,0-0.3,0.1-0.4,0.1c-0.1,0-0.1,0-0.1-0.1c-0.1-0.2-0.1-0.3-0.1-0.5c0,0,0-0.1,0-0.1c0.3-0.1,0.5-0.2,0.8-0.2
		c0.2,0,0.4-0.1,0.6-0.2C8,9.9,8.3,9.9,8.6,9.8c0.2,0,0.3-0.1,0.5-0.1c0.1,0,0.2-0.1,0.3-0.1c0.1,0,0.1-0.1,0.1-0.2
		C9.4,9.2,9.4,9,9.4,8.8C9.4,8.8,9.4,8.8,9.4,8.8z"/>
	<path class="st0" d="M9.4,24.5c0-0.4,0-0.7,0-1.1c0-0.2,0-0.3,0-0.5c0-0.1,0-0.1,0-0.2c0-0.3-0.1-0.3-0.3-0.4
		c-0.3-0.1-0.6-0.1-0.9-0.2C8.1,22,7.8,22,7.5,21.9c-0.2-0.1-0.5-0.1-0.7-0.2c-0.2,0-0.3-0.1-0.5-0.1c0,0,0,0,0-0.1
		c0-0.2,0-0.4,0.1-0.6c0,0,0-0.1,0.1,0c0.1,0,0.3,0,0.4,0.1c0.1,0,0.3,0.1,0.4,0.1c0.2,0,0.4,0.1,0.5,0.1c0.2,0.1,0.5,0.1,0.7,0.2
		c0.2,0,0.3,0.1,0.5,0.1c0.1,0,0.3,0,0.4,0c0,0,0,0,0-0.1c0-0.1,0-0.3,0-0.4c0,0,0-0.1,0.1-0.1c0.2,0,0.4,0,0.5,0
		c0.1,0,0.1,0,0.1,0.1c0,0.2,0,0.4,0,0.7c0,0,0,0.1,0.1,0.1c0.2,0.1,0.5,0.1,0.7,0.2c0.1,0,0.1,0,0.1,0.1c0,0.1-0.1,0.3-0.1,0.4
		c0,0,0,0-0.1,0c-0.2,0-0.4,0-0.6,0c-0.1,0-0.1,0-0.1,0.1c0,0.1,0,0.1,0,0.2c0,0.4,0,0.8,0,1.2c0,0.4,0,0.8,0,1.2
		c0,0.2-0.1,0.3-0.2,0.3c-0.1,0-0.1,0-0.2,0c-0.1,0-0.1,0-0.2,0c-0.1,0-0.1,0-0.1-0.1C9.4,25.2,9.4,24.8,9.4,24.5
		C9.4,24.5,9.4,24.5,9.4,24.5z"/>
	<path class="st0" d="M2.6,20.5c0-0.3,0.1-0.5,0.3-0.7c0.2-0.2,0.4-0.3,0.6-0.4c0.3-0.1,0.5,0,0.8,0.1c0.1,0.1,0.3,0.1,0.4,0.2
		C4.9,19.9,5,20.1,5,20.3c0.1,0.3,0,0.7-0.1,1c-0.1,0.2-0.3,0.3-0.5,0.4c-0.1,0-0.2,0.1-0.4,0.1c-0.1,0-0.2,0-0.3,0
		c-0.1,0-0.3-0.1-0.4-0.1c-0.2-0.1-0.4-0.3-0.6-0.5C2.7,21,2.6,20.8,2.6,20.5z"/>
	<path class="st0" d="M10.8,28c0,0.1,0,0.1,0,0.1c0,0.2-0.1,0.4-0.2,0.6c-0.2,0.2-0.5,0.4-0.8,0.5c-0.3,0.1-0.6,0-0.8-0.2
		c-0.3-0.2-0.5-0.4-0.6-0.7c-0.1-0.2-0.1-0.4,0-0.6c0.1-0.4,0.4-0.7,0.8-0.8c0.3-0.1,0.6-0.1,0.9,0c0.1,0.1,0.3,0.1,0.4,0.2
		c0.2,0.1,0.3,0.3,0.3,0.5C10.8,27.8,10.8,27.9,10.8,28z"/>
	<path class="st0" d="M3.9,10.2c0.4,0,0.8,0.2,1,0.5C5,10.9,5,11.1,5,11.2c0,0.2,0,0.3,0,0.5c0,0.1-0.1,0.2-0.2,0.3
		c-0.1,0.2-0.3,0.3-0.5,0.4c0,0-0.1,0-0.1,0c-0.2,0-0.3,0-0.5,0c-0.4,0-0.6-0.2-0.8-0.5c-0.1-0.2-0.2-0.4-0.2-0.7
		c0-0.1,0-0.2,0.1-0.3c0.1-0.3,0.3-0.5,0.6-0.7C3.5,10.3,3.7,10.2,3.9,10.2z"/>
	<path class="st0" d="M8.5,3.9c0-0.1,0-0.2,0-0.3c0.1-0.2,0.2-0.4,0.3-0.5C8.9,3,9.1,2.9,9.2,2.8c0.1,0,0.1,0,0.2,0
		c0.2,0,0.3,0,0.5,0c0.3,0.1,0.6,0.3,0.7,0.6c0.1,0.1,0.1,0.3,0.2,0.4c0,0.2,0,0.3,0,0.5c-0.1,0.2-0.2,0.4-0.4,0.6
		c-0.1,0.1-0.1,0.1-0.2,0.1C10,5.1,9.9,5,9.7,5c-0.2,0-0.4,0-0.5,0C9.1,5,9,4.9,8.9,4.9C8.8,4.8,8.7,4.7,8.6,4.5
		C8.5,4.4,8.5,4.3,8.5,4.1C8.5,4.1,8.5,4,8.5,3.9z"/>
	<path class="st0" d="M28.1,27c0.1,0,0.3,0,0.4,0c0,0,0.1,0,0.1,0c0.3,0.2,0.5,0.4,0.6,0.7c0.1,0.3,0.1,0.6-0.1,0.9
		c-0.2,0.3-0.4,0.5-0.7,0.6c-0.3,0.1-0.5,0.1-0.8,0c-0.2-0.1-0.4-0.2-0.6-0.4c-0.1-0.1-0.2-0.3-0.1-0.5c0-0.1,0-0.2,0-0.3
		c0-0.1,0-0.3,0.1-0.4c0.1-0.2,0.3-0.3,0.5-0.5c0.1-0.1,0.2,0,0.3-0.1C28,26.9,28,27,28.1,27z"/>
	<path class="st0" d="M4.7,9.1C4.6,9.2,4.5,9.1,4.5,9c0,0,0,0,0-0.1c0.2-0.4,0.4-0.7,0.7-1.1c0.2-0.3,0.4-0.5,0.5-0.7
		c0.2-0.3,0.4-0.5,0.6-0.8C6.5,6.1,6.7,5.8,7,5.6c0.1-0.1,0.3-0.3,0.4-0.4c0,0,0.1,0,0.1,0c0.1,0.1,0.1,0.1,0.2,0.2c0,0,0,0.1,0,0.1
		C7.5,5.7,7.4,5.9,7.2,6.1C6.9,6.4,6.6,6.7,6.3,7C6.1,7.3,5.8,7.6,5.6,8C5.4,8.3,5.2,8.6,5,8.9C5,9,4.9,9,4.9,9.1
		C4.9,9.1,4.8,9.1,4.7,9.1z"/>
	<path class="st0" d="M11.6,2.5c0-0.1,0-0.1,0.1-0.2c0.1-0.1,0.3-0.1,0.4-0.2c0.3-0.1,0.6-0.2,0.9-0.4c0.2-0.1,0.5-0.2,0.7-0.2
		c0.3-0.1,0.5-0.1,0.8-0.2c0.2-0.1,0.4-0.1,0.6-0.1c0.1,0,0.2,0,0.4-0.1c0.2-0.1,0.5-0.1,0.7-0.1c0.1,0,0.1,0,0.1,0.1
		c0,0.2-0.1,0.3-0.3,0.4c-0.2,0-0.4,0.1-0.6,0.1c-0.2,0-0.4,0.1-0.5,0.1c-0.2,0-0.4,0.1-0.6,0.2C14.2,1.9,14,2,13.7,2.1
		c-0.3,0.1-0.5,0.2-0.8,0.3c-0.4,0.1-0.7,0.3-1.1,0.4c-0.1,0-0.2,0-0.3-0.1C11.6,2.6,11.6,2.5,11.6,2.5z"/>
	<path class="st0" d="M4.9,22.8c0.1,0,0.1,0,0.1,0.1c0.3,0.5,0.6,0.9,0.9,1.4c0.4,0.5,0.8,1,1.2,1.4c0.2,0.2,0.3,0.3,0.5,0.5
		c0.1,0.1,0.1,0.2,0.2,0.2c0,0,0,0.1,0,0.1c-0.1,0-0.1,0.1-0.2,0.1c-0.1,0-0.1,0-0.2,0c-0.3-0.3-0.7-0.6-1-1
		c-0.2-0.3-0.5-0.5-0.7-0.8c-0.3-0.4-0.6-0.7-0.8-1.1c-0.1-0.2-0.3-0.5-0.4-0.7c0,0,0,0,0-0.1C4.7,22.8,4.8,22.8,4.9,22.8z"/>
	<path class="st0" d="M21.6,1.2c0.3,0,0.6,0,0.8,0.1c0.4,0.1,0.8,0.2,1.3,0.4C24.1,1.8,24.6,2,25,2.2c0.3,0.1,0.6,0.2,0.9,0.4
		c0.1,0,0.1,0.1,0.2,0.1c0,0,0,0,0,0.1C26,2.9,25.9,3,25.8,3c-0.1,0-0.1,0-0.2,0c-0.3-0.1-0.6-0.3-0.9-0.4c-0.2-0.1-0.5-0.2-0.7-0.3
		c-0.3-0.1-0.6-0.2-0.8-0.3c-0.2-0.1-0.5-0.1-0.7-0.2c-0.2-0.1-0.5-0.1-0.7-0.2c-0.1,0-0.2-0.1-0.3-0.1c0,0,0,0,0-0.1
		c0-0.1,0.1-0.1,0.1-0.2C21.5,1.2,21.5,1.2,21.6,1.2z"/>
	<path class="st0" d="M2.6,15.9c0-0.2,0-0.5,0-0.7c0-0.2,0-0.3,0.1-0.5c0-0.1,0-0.3,0.1-0.4c0-0.2,0-0.4,0.1-0.6c0,0,0,0,0,0
		c0,0,0-0.1,0.1-0.1c0,0,0.1,0.1,0.1,0.1c0.1,0.1,0.2,0.1,0.2,0.3c0,0.3,0,0.5,0,0.8c0,0.2,0,0.5,0,0.7c0,0.3,0,0.6,0,0.9
		c0,0.2,0,0.5,0,0.7c0,0.4,0,0.8,0,1.1c0,0,0,0.1,0,0.1c0,0-0.1,0-0.1,0c0,0-0.1,0-0.1,0c-0.1,0-0.1,0-0.1-0.1c0-0.2,0-0.5-0.1-0.7
		c0-0.1,0-0.2-0.1-0.3c0-0.1,0-0.2,0-0.3C2.6,16.6,2.6,16.2,2.6,15.9z"/>
	<path class="st0" d="M26,24.9C26.1,24.9,26.1,24.9,26,24.9c0.3,0.2,0.5,0.5,0.7,0.8c0.1,0.1,0.1,0.2,0.2,0.3c0,0,0,0.1,0,0.1
		c-0.2,0.1-0.3,0.2-0.5,0.3c0,0-0.1,0-0.1,0c-0.2-0.2-0.4-0.5-0.6-0.7c-0.1-0.1-0.1-0.2-0.2-0.3c0,0,0-0.1,0-0.1
		C25.7,25.1,25.8,25,26,24.9C26,24.9,26,24.9,26,24.9z"/>
	<path class="st0" d="M26.1,7.2c0,0-0.1-0.1-0.1-0.1c-0.1-0.1-0.2-0.2-0.3-0.3c-0.1,0,0-0.1,0-0.1c0.1-0.1,0.2-0.3,0.3-0.4
		c0.1-0.2,0.3-0.4,0.5-0.6c0,0,0,0,0.1,0C26.7,5.8,26.8,6,27,6.1c0,0,0,0,0,0.1c-0.1,0.2-0.3,0.5-0.5,0.7C26.4,7,26.3,7.1,26.1,7.2
		C26.2,7.2,26.2,7.2,26.1,7.2z"/>
</g>
</svg>
