<svg id="Ebene_1" data-name="Ebene 1" xmlns="http://www.w3.org/2000/svg" viewBox="0 0 1804.23 353.78"><g id="Chain_C.psd"><path d="M288.44,50.2c-.16.56-.33,1.11-.48,1.67a12.92,12.92,0,0,1-6.2,8.05,9.24,9.24,0,0,1-5.75.92,8.44,8.44,0,0,0-1.65-.15c-3.69.39-6.14-1.57-8.36-4.17-4.68-5.47-2.9-15.36,4.59-18.92s15.83,1.67,17.32,8c.14.59.35,1.16.53,1.75Z" transform="translate(-8.95 -5.29)"/><path d="M181.34,5.29c.21.12.43.35.64.34,3.08-.11,5,1.73,6.65,4,4.28,5.88,2.77,14.51-3.12,18.15-5.28,3.27-13.2,1.83-16.75-3.26a10.8,10.8,0,0,1-1.66-4.91,24.44,24.44,0,0,1,.25-6.27c.52-3.49,4.43-7.12,8-7.68.22,0,.41-.23.62-.35Z" transform="translate(-8.95 -5.29)"/><path d="M225.36,268.86a45,45,0,0,1-2.05-5.6c-.75-3.37.3-6.47,2.22-9.23a11.91,11.91,0,0,1,10.38-5.46c5.09.06,10.56,4.32,11.7,9,1.55,6.35-1.13,12.27-6.85,15-2.33,1.09-4.87.95-7.34.67a31.09,31.09,0,0,1-3.88-1.14,2.15,2.15,0,0,0-1.39.16,96.52,96.52,0,0,1-24.57,9.46c-4.17.94-8.43,1.47-12.63,2.28a2.26,2.26,0,0,0-1.33,1.13,12.9,12.9,0,0,1-8.35,6.78c-5.13,1.31-11.17-1.45-13.83-6.44a3.67,3.67,0,0,0-3.1-2.1,95.55,95.55,0,0,1-24.28-7.06c-3.44-1.55-6.78-3.34-10.13-5.08a1.74,1.74,0,0,0-2.09.08,12,12,0,0,1-14.19-.54,11.76,11.76,0,0,1-4.35-13.37,2,2,0,0,0-.58-2.45A98.84,98.84,0,0,1,88.4,225.65c-.46-1-1.11-1.09-2-1.1A12.23,12.23,0,0,1,75.17,218a9.87,9.87,0,0,1-1-3.78,37.6,37.6,0,0,1-.08-5c.08-3.56,2.33-5.74,5.08-7.41a2.4,2.4,0,0,0,1.27-2.91c-.43-2.88-.68-5.79-.87-8.69-.19-2.74-.28-5.49-.26-8.23a94.73,94.73,0,0,1,1.91-17.61,1.2,1.2,0,0,0-.72-1.53,11.76,11.76,0,0,1-4.76-4.24,9.43,9.43,0,0,1-1.4-3.52,22.77,22.77,0,0,1-.07-6.54c.82-4.41,3.86-7.16,8-8.47,1.76-.56,3.8-.29,5.71-.25,1,0,1.56-.06,2-1a99.34,99.34,0,0,1,20-27.19,1.59,1.59,0,0,0,.39-2.28,12.74,12.74,0,0,1,12.26-18.71c3.31.26,6.41,1.33,8.6,4.08.66.82,1.25.45,1.91.1a92.16,92.16,0,0,1,20.09-7.94c3.93-1,7.95-1.69,11.94-2.51a1.45,1.45,0,0,0,1.36-1.4c.82-5.83,6.64-10.94,12.41-10.67a12.6,12.6,0,0,1,11.32,7.31,17.86,17.86,0,0,1,.93,4.15c3,.52,6,1,9.06,1.59a94.79,94.79,0,0,1,25.3,8.91,2.09,2.09,0,0,0,2.7-.34,12.6,12.6,0,0,1,16.35.66c3.81,3.57,4.75,7.83,3.28,12.67S243,115,238,115.93c-4.77.93-10.77-2.24-13-6.7a11.58,11.58,0,0,1-.68-9.92c.37-.93-.25-1.12-.82-1.41a86.44,86.44,0,0,0-17.25-6.73c-4.44-1.13-9-2-13.45-2.84-1.73-.35-1.84-.14-2.51,1.44A11.22,11.22,0,0,1,180.47,97c-3.62.36-7.11-.07-9.74-2.94a20.13,20.13,0,0,1-3.12-4.35,1.82,1.82,0,0,0-2.32-1.16c-4.19.91-8.4,1.73-12.53,2.84a89.54,89.54,0,0,0-17.32,6.91,1.87,1.87,0,0,0-1.17,2.59c1.13,4.34-.49,8-3.34,11.19-4.48,4.93-10.35,5.67-16.06,2.16a1.23,1.23,0,0,0-1.77.2,96.49,96.49,0,0,0-19.3,26.11c-.38.75-.54,1.3.28,2,4,3.36,5.52,7.68,4.16,12.7s-4.93,7.69-9.8,8.89c-.33.08-.67.15-1,.2-2,.35-2.15.34-2.39,2.39-.54,4.59-1,9.19-1.35,13.8a53.89,53.89,0,0,0,0,7.3c.24,3.76.68,7.51,1,11.26.07.81.57.9,1.24.94a18.11,18.11,0,0,1,4.32.47c4.51,1.47,6.94,4.92,8,9.31s-1.19,9.62-5.3,12.38c-1,.7-1.09,1.21-.59,2.26A97.64,97.64,0,0,0,111,251.26c.8.82,1.32,1.05,2.25.12,4.76-4.74,15.16-3.67,18.91,3.32a9.48,9.48,0,0,1,1,3.55,43.17,43.17,0,0,1,0,5.8,6.42,6.42,0,0,1-.72,2.44c-.4.81-.26,1.2.51,1.63a88.8,88.8,0,0,0,18.82,8c4.37,1.24,8.84,2.07,13.27,3.09.8.19,1.17-.05,1.19-.95.15-4.78,3-7.78,6.84-10a5.67,5.67,0,0,1,2.49-.52c1.41-.09,2.85.11,4.25-.07,2.7-.34,4.77.82,6.6,2.55,2.43,2.3,4.36,4.89,4.34,8.45,0,.89.55,1,1.2.91,2.33-.34,4.67-.62,7-1.08a95.64,95.64,0,0,0,24.5-8.52C224.16,269.57,224.85,269.14,225.36,268.86Z" transform="translate(-8.95 -5.29)"/><path d="M148.32,294.51c1.53,2.55,2.85,4.94,4.35,7.22,6.92,10.51,13.91,21,20.83,31.5a2.39,2.39,0,0,0,2.38,1.31c1.89-.1,3.79,0,5.67-.06a2.23,2.23,0,0,0,1.54-.81q11.55-17.25,23-34.56a17.88,17.88,0,0,0,1.61-3.62c.32-.85-.06-1.22-1-1.54a30.69,30.69,0,0,1-4.48-2.15,1.21,1.21,0,0,1-.28-1.13c.66-1.44,1.45-2.83,2.16-4.25a1,1,0,0,1,1.48-.53c2,.72,4.07,1.34,6.07,2.12a1.39,1.39,0,0,0,2-.63c1.45-2.17,3-4.25,4.64-6.48l3.79,2.7a2.26,2.26,0,0,1,.81,2.75c-.47,1.43-1,2.85-1.5,4.25-.36,1-.16,1.36.91,1.73,5.36,1.82,10.68,3.75,16,5.69,3.63,1.32,7.24,2.69,10.85,4.06,2,.77,2.2,1.13,2,3.28a5.25,5.25,0,0,1-.21.87c-1.11,3.68-1.26,3.81-4.8,2.5-9.27-3.4-18.52-6.87-27.77-10.32-2-.73-2.47-.65-3.66,1.09q-3.7,5.36-7.29,10.78c-5.35,8.05-10.66,16.13-16,24.17a1.74,1.74,0,0,0,0,2.3c.88,1.21,1.64,2.52,2.51,3.74a2.4,2.4,0,0,0,2.75,1c6-1.28,12.1-2.07,18-3.67a178.11,178.11,0,0,0,34.26-13c1.14-.59,1.55-.24,2.08.67,1.35,2.34,1.41,2.37-.92,3.58a147.56,147.56,0,0,1-31.31,12c-6.27,1.6-12.62,2.84-19,4.12a42.91,42.91,0,0,1-6,.57c-2.12.13-2.55.41-2.93,2.58a14.43,14.43,0,0,1-2.9,6.79c-2,2.47-4.41,4-7.75,3.83a51.22,51.22,0,0,1-5.27-.14c-3.68-.65-6-3.09-7.59-6.36A23.24,23.24,0,0,1,166.1,349c-.71-2.49-1.48-3.09-4.12-3.16a63.83,63.83,0,0,1-6.78-.26c-4.62-.59-9.25-1.23-13.82-2.13a158.91,158.91,0,0,1-31.87-10c-2.11-.91-4.09-2.13-6.08-3.18a2.85,2.85,0,0,1,.14-.64c2.09-3.58,2.13-2.91,4.94-1.63a154.21,154.21,0,0,0,37.19,11.82c5.26.93,10.59,1.44,15.89,2.15a2,2,0,0,0,2.37-1.27,16.2,16.2,0,0,1,.92-1.55,5.25,5.25,0,0,0-.21-6c-4.95-7.39-9.83-14.83-14.74-22.25l-7.29-11.09c-1.39-2.1-2.24-2.38-4.65-1.46-4.57,1.75-9.11,3.56-13.7,5.28-5.18,1.94-10.4,3.78-15.59,5.71-1.09.4-1.64.15-1.94-1-.4-1.48-.94-2.94-1.36-4.42-.25-.85,0-1.39,1-1.74,7.58-2.75,15.14-5.58,22.72-8.34a37.14,37.14,0,0,1,4.93-1.46c1.2-.26,1.49-.92,1.19-1.92a51.24,51.24,0,0,0-1.7-5,1.23,1.23,0,0,1,.63-1.86c1.24-.69,2.46-1.41,3.66-2.17a.93.93,0,0,1,1.49.27c1.31,1.75,2.7,3.45,4,5.18a2.1,2.1,0,0,0,2.9.7c1.55-.72,3.21-1.22,4.79-1.87a1,1,0,0,1,1.45.51c.67,1.3,1.33,2.6,2.07,3.86a1.23,1.23,0,0,1-.47,1.94c-1.31.7-2.67,1.31-4,1.93C149.66,294.17,149.23,294.24,148.32,294.51Z" transform="translate(-8.95 -5.29)"/><path d="M35.57,153.57c1.57-1.24,3.09-2.5,4.68-3.65a1.33,1.33,0,0,1,1.22.32c2,2.26,4,4.53,5.82,6.87q6.83,8.58,13.55,17.22c.53.67,1,.76,1.6.24,1.32-1.16,2.64-2.31,3.89-3.55.56-.56.93-.73,1.59-.16,1.28,1.14,2.62,2.22,4,3.3.65.52.66,1,.12,1.6-.92,1-1.82,2.07-2.66,3.15-1.78,2.28-1.8,3.51-.15,5.9,1.09,1.58,2.19,3.15,3.35,4.82-1.73,1.22-3.28,2.37-4.9,3.4a1.44,1.44,0,0,1-1.29-.24c-1.33-1.09-2.59-2.25-3.85-3.42-.67-.63-1.15-.5-1.69.19C56,195.72,51.2,201.89,46.34,208c-1.58,2-3.33,3.82-5,5.75a1,1,0,0,1-1.61.08c-1.15-1.09-2.31-2.18-3.51-3.21-.83-.71-.67-1.27-.05-2q8.12-10.09,16.16-20.25c1.28-1.61,2.46-3.31,3.77-4.9a2,2,0,0,0,.12-2.77c-1.72-2.19-3.46-4.37-5.16-6.58q-7.45-9.71-14.87-19.44A10.66,10.66,0,0,1,35.57,153.57Z" transform="translate(-8.95 -5.29)"/><path d="M108.28,54.73c2.24.71,4.39,1.3,6.47,2.08q12.52,4.71,25,9.54a1.46,1.46,0,0,0,1.92-.47c1-1.26,2-2.48,2.86-3.8q7.89-11.78,15.68-23.62c.58-.89,1.12-1.06,2-.55,1.42.87,2.84,1.76,4.28,2.61.87.51.72,1,.24,1.77-4,6-8,11.9-11.93,17.9-1.76,2.7-3.3,5.53-4.94,8.29-.53.88-.34,1.42.68,1.7a11.85,11.85,0,0,1,1.81.65c2.46,1.1,2.51,1.3,2.19,4.19-.08.67-.45,1.31-.53,2-.16,1.3-1,1.36-2,1.14-2.25-.53-4.5-1.05-6.71-1.73a1.41,1.41,0,0,0-2,.74c-1.07,1.81-2.27,3.54-3.34,5.35-.41.69-.82.84-1.44.4q-2.28-1.64-4.55-3.32c-.66-.49-.54-1-.14-1.67.7-1.12,1.28-2.33,1.94-3.48.59-1,.42-1.54-.75-2-7.29-2.68-14.55-5.44-21.83-8.15-1.73-.65-3.48-1.23-5.23-1.83-1.55-.53-2.16-1.41-1.87-3a28,28,0,0,1,1-3.85C107.29,55.27,107.84,55.07,108.28,54.73Z" transform="translate(-8.95 -5.29)"/><path d="M220.93,72.77c.95,1.88,1.71,3.69,2.75,5.33.68,1.06.54,1.62-.42,2.29-1.53,1.07-3,2.22-4.65,3.42-1.19-1.72-2.21-3.3-3.33-4.8-2.4-3.22-1.6-3-5.61-1.74-1.26.4-2.46,1-3.72,1.42a1.29,1.29,0,0,1-1.18-.39c-.76-1.54-1.38-3.15-2.07-4.72-.3-.69-.11-1.1.58-1.41,1.33-.6,2.62-1.29,3.95-1.9.66-.3,1-.69.6-1.4a47.62,47.62,0,0,0-2.51-5.06c-4.47-6.88-9-13.68-13.57-20.53-1.15-1.73-1-2.44.69-3.63.67-.47,1.39-.86,2.09-1.27,1.62-.94,2.36-.82,3.43.75,1.22,1.77,2.32,3.62,3.5,5.41,4.47,6.78,8.93,13.56,13.45,20.3,1.43,2.13,1.57,2.13,4,1.23q14.31-5.28,28.61-10.61c1.8-.67,2-.72,2.84,1a26.07,26.07,0,0,1,1.49,4.71,1.28,1.28,0,0,1-.65,1q-12.57,4.64-25.17,9.15C224.5,71.88,222.87,72.23,220.93,72.77Z" transform="translate(-8.95 -5.29)"/><path d="M81.29,118.36c-1.15.28-2.14.49-3.12.77-9.58,2.67-19.17,5.32-28.74,8.06-1.25.36-1.69,0-1.87-1.15-.22-1.48-.5-3-.78-4.43a1.2,1.2,0,0,1,.94-1.56c2.77-.74,5.56-1.42,8.32-2.2,5-1.43,10-3,15.08-4.37,1.85-.52,3.78-.75,5.65-1.23,2.7-.69,3.28-1.5,3.28-4.23,0-5.64,0-11.27,0-16.9q0-7.41-.25-14.82c0-1.14.34-1.54,1.47-1.47a31.11,31.11,0,0,0,3.74,0c1,0,1.57.15,1.61,1.28.13,3.23.35,6.47.45,9.71.07,2.41,0,4.82,0,7.22,0,2.14.09,4.28.25,6.41.2,2.82.51,5.63.77,8.45.08.84.58.81,1.19.62,1.6-.48,3.22-.91,4.81-1.44.82-.28,1.32-.15,1.56.7.49,1.69,1,3.37,1.42,5.07.17.66-.06,1.1-.85,1.29-2,.52-4,1.21-6.08,1.68-1.07.25-1.31.76-1.31,1.78,0,2.36-.17,4.72-.21,7.08,0,.81-.38,1-1.11,1-1.59,0-3.18,0-4.77,0-.85,0-1.11-.33-1.13-1.15C81.53,122.6,81.4,120.63,81.29,118.36Z" transform="translate(-8.95 -5.29)"/><path d="M96.9,250.53c-.6,1.72-1.05,3.24-1.68,4.67a1.83,1.83,0,0,1-1.39.81c-1.84,0-3.68-.08-5.52-.18C87.45,255.78,87,256,87,257c.07,1.11.23,2.22.22,3.33q-.09,12.57-.25,25.13c0,3.08-1.21,3.9-4.37,3.58-.26,0-.51-.12-.76-.14-2.09-.2-2.09-.2-2.09-2.37,0-4.47,0-8.94,0-13.41s.14-9.1.26-13.65c0-1.53.27-3.05.25-4.57a2.46,2.46,0,0,0-2.11-2.31q-13.87-3.86-27.77-7.64a21.5,21.5,0,0,0-2.51-.52,1.23,1.23,0,0,1-1.16-1.62c.26-1.6.52-3.21.76-4.81.11-.74.41-1,1.22-.81,5.31,1.38,10.62,2.69,15.93,4.07,4.1,1.07,8.17,2.27,12.28,3.28a19.87,19.87,0,0,0,3.72.19c.78,0,.91-.48.91-1.1,0-1.21,0-2.41,0-3.61,0-.87.24-1.27,1.17-1.24,1.37.06,2.75,0,4.12,0,.89,0,1.22.31,1.2,1.2,0,2.2,0,4.39,0,6.58a1.36,1.36,0,0,0,1.2,1.6C91.74,248.82,94.2,249.67,96.9,250.53Z" transform="translate(-8.95 -5.29)"/><path d="M21.29,219.91c7.8.6,12.87,4.62,12.9,13.08,0,8.07-4.28,12.29-12.29,12.87C16,246.29,9.29,241.29,9,233.43,8.65,226.14,15,220,21.29,219.91Z" transform="translate(-8.95 -5.29)"/><path d="M93.73,315.57c.72,7.67-6.68,12.76-12.33,12.75-6.32,0-13-6.5-13-12.7,0-6.86,6.19-13.24,13-13.07C87.54,302.7,94.3,306.93,93.73,315.57Z" transform="translate(-8.95 -5.29)"/><path d="M33.86,130.09C34.08,138.7,29,143.31,21,143.27c-7.85,0-11.75-7.35-11.91-12.65-.18-6.14,6.28-12.15,12.84-12.15A11.66,11.66,0,0,1,33.86,130.09Z" transform="translate(-8.95 -5.29)"/><path d="M70,48.64c-.67-5.3,1.92-8.9,6.3-11.24A12.19,12.19,0,0,1,93,43.1a12.48,12.48,0,0,1-6.29,17.1,2.82,2.82,0,0,1-1.08.39,44.18,44.18,0,0,1-7.28-.09C74,59.83,70,54.68,70,50.31Z" transform="translate(-8.95 -5.29)"/><path d="M263.53,315.63a4.51,4.51,0,0,0,0-.52c-.73-5.44,2.79-8.21,6.78-10.61a7,7,0,0,1,2.59-.6c8.28-1.25,13.4,2.81,15,10.57.78,3.65-.91,6.88-3.37,9.62a13.28,13.28,0,0,1-9,4.44,7.14,7.14,0,0,1-2.66-.36,14.13,14.13,0,0,1-8.12-5.75,11.89,11.89,0,0,1-1.24-4,14.74,14.74,0,0,1,0-2.82Z" transform="translate(-8.95 -5.29)"/><path d="M59.31,62.88a1.17,1.17,0,0,1,.29.12c3.06,3.28,3.18,2,0,5.31A162.36,162.36,0,0,0,42.45,89.23c-3.34,4.89-6.36,10-9.33,15.12-1.28,2.21-3.25,2.34-4.64.4a1.51,1.51,0,0,1-.11-1.31A170.73,170.73,0,0,1,49.52,72.72c2.7-3,5.65-5.88,8.5-8.79A16.4,16.4,0,0,1,59.31,62.88Z" transform="translate(-8.95 -5.29)"/><path d="M152.8,17.85c0,2.24-1.17,3.56-3,3.81a145.29,145.29,0,0,0-41.51,12.47,21,21,0,0,1-2.25.94A2.5,2.5,0,0,1,103,33a1.81,1.81,0,0,1,1.11-2,155.17,155.17,0,0,1,37.54-12.45c2.82-.52,5.64-1,8.47-1.47a2.89,2.89,0,0,1,1.4,0A5.52,5.52,0,0,1,152.8,17.85Z" transform="translate(-8.95 -5.29)"/><path d="M28.57,258.48a36.17,36.17,0,0,1,3.76-.8,1.63,1.63,0,0,1,1.23.8,142.44,142.44,0,0,0,15.26,22.94c3.28,4,6.8,7.85,10.22,11.77,1,1.2,2.05,2.43,3.12,3.6.53.59.5,1-.13,1.49-.42.3-.8.65-1.22,1a1.55,1.55,0,0,1-2.26-.26A169.23,169.23,0,0,1,44,282.74a154.6,154.6,0,0,1-14.69-22.69C29.1,259.61,28.89,259.15,28.57,258.48Z" transform="translate(-8.95 -5.29)"/><path d="M253.86,35.4c-1.83,2.41-3.21,2.74-5.48,1.65C237.6,31.86,226.59,27.31,215,24.43c-2.42-.59-4.85-1.09-7.25-1.75a26.79,26.79,0,0,1-3.38-1.45c.63-.88,1.11-1.62,1.66-2.3a1.13,1.13,0,0,1,.8-.25,51.19,51.19,0,0,1,12.73,2.38,171.45,171.45,0,0,1,29.78,11.41A45.53,45.53,0,0,1,253.86,35.4Z" transform="translate(-8.95 -5.29)"/><path d="M11.59,208.23c-3.15-17.81-3.62-35.55.11-53.32,2.87,1.69,3,2,2.62,5.32-.24,2.26-.27,4.54-.31,6.81-.11,6.91-.27,13.82-.24,20.73,0,4.67.31,9.34.49,14,.07,1.63.12,3.25.26,4.87.08,1.07-.3,1.51-1.38,1.42A7.85,7.85,0,0,0,11.59,208.23Z" transform="translate(-8.95 -5.29)"/><path d="M262.78,292.7l-5.68,3.92c-1.57-2-3.18-3.85-4.63-5.85-1.32-1.8-2.48-3.72-3.66-5.62a1.13,1.13,0,0,1,0-1.06,44.77,44.77,0,0,1,4.22-2.93,1.67,1.67,0,0,1,1.57.21C258,284.58,260.34,288.61,262.78,292.7Z" transform="translate(-8.95 -5.29)"/><path d="M254.92,85a9.32,9.32,0,0,1-.83-.54c-1.2-1-2.37-2-3.6-2.91-.56-.42-.71-.84-.33-1.4,2.46-3.61,4.94-7.2,7.4-10.81.45-.66.93-.58,1.5-.13,1.29,1,2.6,2,3.93,2.91a.92.92,0,0,1,.24,1.5c-2.5,3.53-5,7.06-7.49,10.58A6.24,6.24,0,0,1,254.92,85Z" transform="translate(-8.95 -5.29)"/></g><path d="M341.17,276.11a65.35,65.35,0,0,1-26.51-5.35,41.53,41.53,0,0,1-19.38-17.34q-7.14-12-7.14-31.87V142.76q0-19.89,7.39-31.88A43.12,43.12,0,0,1,315,93.55a65.12,65.12,0,0,1,26.64-5.36q16.83,0,28.56,5.87a44.4,44.4,0,0,1,18,15.55A38.76,38.76,0,0,1,394.47,131c0,4.08-.73,6.76-2.17,8a9.2,9.2,0,0,1-6.25,1.91q-4.59,0-6.5-1.91a7.13,7.13,0,0,1-2.17-4.46,36.66,36.66,0,0,0-1.4-9.31,30.52,30.52,0,0,0-5.1-10.2,26.94,26.94,0,0,0-10.71-8.16q-7-3.18-18.23-3.18-17.85,0-27.28,9.56t-9.44,29.45v78.79q0,20.14,9.56,29.58t27.92,9.43q11.48,0,18.11-3.19a24.94,24.94,0,0,0,9.94-7.9,31.06,31.06,0,0,0,4.72-10.2,74.45,74.45,0,0,0,1.91-10.07,8,8,0,0,1,2.42-5c1.28-1.1,3.27-1.65,6-1.65s5.05.72,6.5,2.16,2.17,4.21,2.17,8.29a38.33,38.33,0,0,1-6.38,21.29,45.64,45.64,0,0,1-18.23,15.81Q358,276.12,341.17,276.11Z" transform="translate(-8.95 -5.29)"/><path d="M428.89,274.58a8.57,8.57,0,0,1-5.74-2,5.89,5.89,0,0,1-2.42-4.59V86.41a5.38,5.38,0,0,1,2.42-4.72A10,10,0,0,1,428.89,80a10.43,10.43,0,0,1,6,1.66,5.4,5.4,0,0,1,2.42,4.72v85.42a43.92,43.92,0,0,1,12.75-13.39q8.42-6,20.91-6a41.46,41.46,0,0,1,22.56,6.5,48.3,48.3,0,0,1,22.57,41.43V268a5.54,5.54,0,0,1-2.55,5,10.56,10.56,0,0,1-5.86,1.65,10.34,10.34,0,0,1-5.49-1.65,5.48,5.48,0,0,1-2.67-5V200.38a30.78,30.78,0,0,0-4.34-15.81,36.6,36.6,0,0,0-11.47-12.11,28.1,28.1,0,0,0-15.81-4.71,29.37,29.37,0,0,0-14.66,3.95,31.81,31.81,0,0,0-11.48,11.09q-4.45,7.14-4.46,17.59V268a5.92,5.92,0,0,1-2.42,4.59A9,9,0,0,1,428.89,274.58Z" transform="translate(-8.95 -5.29)"/><path d="M573.46,276.37q-14.54,0-24.61-8.29t-10.07-25.37q0-14,7.52-21.54t20.91-10.46a146.23,146.23,0,0,1,31-2.93h13v-5.87a47.66,47.66,0,0,0-2.93-16.44,29.72,29.72,0,0,0-9.44-13.26q-6.5-5.22-17.72-5.23a44.36,44.36,0,0,0-13.77,1.79,40.49,40.49,0,0,0-8.41,3.69,10.29,10.29,0,0,1-5.1,1.92,5.72,5.72,0,0,1-5-3.06,10.83,10.83,0,0,1-1.91-5.61q0-3.57,5.36-6.51a54.13,54.13,0,0,1,13.38-4.84,68.4,68.4,0,0,1,15.94-1.91q17.08,0,27.16,7a39.73,39.73,0,0,1,14.53,18.23,64.36,64.36,0,0,1,4.46,24V268a6,6,0,0,1-2.16,4.72,8.75,8.75,0,0,1-6,1.91,8.57,8.57,0,0,1-5.48-1.91,5.77,5.77,0,0,1-2.42-4.72V256.74a67.7,67.7,0,0,1-15.81,13.64Q586.47,276.37,573.46,276.37Zm4.08-14A32.09,32.09,0,0,0,593.6,258a43,43,0,0,0,12.63-10.58q5-6.24,5-11.86V219.25H600.49a161.14,161.14,0,0,0-21.8,1.41q-10.34,1.4-16.83,6t-6.5,14.53q0,11,6.5,16.07A24.61,24.61,0,0,0,577.54,262.34Z" transform="translate(-8.95 -5.29)"/><path d="M666.78,118.28a11.43,11.43,0,0,1-8-3.19,9.93,9.93,0,0,1-3.44-7.52,9.54,9.54,0,0,1,3.44-7.39,11.72,11.72,0,0,1,8-3.06,11.27,11.27,0,0,1,7.91,3.06,9.71,9.71,0,0,1,3.31,7.39,10.12,10.12,0,0,1-3.31,7.52A11,11,0,0,1,666.78,118.28Zm-.25,156.3a8.57,8.57,0,0,1-5.74-2,5.89,5.89,0,0,1-2.42-4.59V160.35a5.38,5.38,0,0,1,2.42-4.72,9.94,9.94,0,0,1,5.74-1.65,10.4,10.4,0,0,1,6,1.65,5.4,5.4,0,0,1,2.42,4.72V268a5.92,5.92,0,0,1-2.42,4.59A8.94,8.94,0,0,1,666.53,274.58Z" transform="translate(-8.95 -5.29)"/><path d="M714.72,274.58a8.57,8.57,0,0,1-5.74-2,5.89,5.89,0,0,1-2.42-4.59V160.35a5.38,5.38,0,0,1,2.42-4.72,9.94,9.94,0,0,1,5.74-1.65,9.38,9.38,0,0,1,5.61,1.65,5.48,5.48,0,0,1,2.29,4.72v11.48q4.08-7.4,12.75-13.39t21.42-6a41.51,41.51,0,0,1,22.57,6.5,48.32,48.32,0,0,1,22.56,41.43V268a5.54,5.54,0,0,1-2.55,5,10.54,10.54,0,0,1-5.86,1.65,10.28,10.28,0,0,1-5.48-1.65,5.46,5.46,0,0,1-2.68-5V200.38A30.78,30.78,0,0,0,781,184.57a36.5,36.5,0,0,0-11.47-12.11,28.1,28.1,0,0,0-15.81-4.71,29.37,29.37,0,0,0-14.66,3.95,31.89,31.89,0,0,0-11.48,11.09q-4.46,7.14-4.46,17.59V268a5.92,5.92,0,0,1-2.42,4.59A8.94,8.94,0,0,1,714.72,274.58Z" transform="translate(-8.95 -5.29)"/><path d="M875.35,333.74a77.74,77.74,0,0,1-26.64-4.21q-11.61-4.2-18.36-11.73a26,26,0,0,1-6.76-18q0-11.22,6.63-17.85a44,44,0,0,1,15-10,27.81,27.81,0,0,1-10.07-6.24q-4-4-4-11.35,0-7.14,3.57-11.35a28.69,28.69,0,0,1,9.18-7,37.12,37.12,0,0,1-10.58-13.9,44.14,44.14,0,0,1-3.7-18.23v-9.69a42.28,42.28,0,0,1,5.49-21.67,38.55,38.55,0,0,1,15.42-14.79q9.95-5.36,23.21-5.35a47.8,47.8,0,0,1,16.57,2.8,39.88,39.88,0,0,1,13.26,7.91q3.83-7.91,8.67-12c3.22-2.72,6.29-4.08,9.18-4.08,2.71,0,4.71.73,6,2.17a6.74,6.74,0,0,1,1.91,4.46,5.28,5.28,0,0,1-1.27,3.7,6.52,6.52,0,0,1-3.06,1.91,21.57,21.57,0,0,0-7,2.81c-2.63,1.53-5.06,4.25-7.26,8.16a34.64,34.64,0,0,1,5.35,11,46.19,46.19,0,0,1,1.79,13V204a42.56,42.56,0,0,1-5.61,21.68,39.61,39.61,0,0,1-15.68,15.17,47.46,47.46,0,0,1-23.08,5.48A43.25,43.25,0,0,1,853.94,242a31.59,31.59,0,0,0-5.36,3.69,7.76,7.76,0,0,0-2.55,6.25q0,5.61,5.87,8.16a52.29,52.29,0,0,0,14.79,3.57l19,2.17a92,92,0,0,1,19.13,4.2,34.14,34.14,0,0,1,14.78,9.44q5.74,6.38,5.74,18.1,0,12-6.5,20t-17.72,12.11A75.16,75.16,0,0,1,875.35,333.74Zm-.25-12.49q16.06,0,25-6.38T909,298q0-8.16-4.84-12.36a28.55,28.55,0,0,0-12.37-6,114.12,114.12,0,0,0-15.55-2.55q-8-.76-13.9-1.53a49.82,49.82,0,0,0-15.81,8.16,17.44,17.44,0,0,0-6.88,14.54q0,10.18,9.43,16.57T875.1,321.25Zm-1-87.46q12.75,0,20.14-8.55t7.4-21.29v-9.69q0-12.48-7.27-20.9t-20.52-8.42q-13.27,0-20.53,8.42T846,194.26v9.44q0,12.75,7.4,21.42T874.08,233.79Z" transform="translate(-8.95 -5.29)"/><path d="M975.05,276.37q-14.53,0-24.6-8.29t-10.08-25.37q0-14,7.53-21.54t20.9-10.46a146.33,146.33,0,0,1,31-2.93h13v-5.87a47.66,47.66,0,0,0-2.93-16.44,29.72,29.72,0,0,0-9.44-13.26Q993.93,167,982.7,167a44.36,44.36,0,0,0-13.77,1.79,40.49,40.49,0,0,0-8.41,3.69,10.29,10.29,0,0,1-5.1,1.92,5.69,5.69,0,0,1-5-3.06,10.76,10.76,0,0,1-1.92-5.61q0-3.57,5.36-6.51a54.06,54.06,0,0,1,13.39-4.84,68.25,68.25,0,0,1,15.93-1.91q17.09,0,27.16,7a39.67,39.67,0,0,1,14.53,18.23,64.36,64.36,0,0,1,4.46,24V268a6,6,0,0,1-2.16,4.72,8.75,8.75,0,0,1-6,1.91,8.59,8.59,0,0,1-5.48-1.91,5.77,5.77,0,0,1-2.42-4.72V256.74a67.7,67.7,0,0,1-15.81,13.64Q988.06,276.37,975.05,276.37Zm4.08-14A32.13,32.13,0,0,0,995.2,258a42.93,42.93,0,0,0,12.62-10.58q5-6.24,5-11.86V219.25h-10.71a161.14,161.14,0,0,0-21.8,1.41q-10.34,1.4-16.83,6T957,241.18q0,11,6.5,16.07A24.61,24.61,0,0,0,979.13,262.34Z" transform="translate(-8.95 -5.29)"/><path d="M1100,274.58q-19.63,0-30.09-8.92t-10.45-28.56V103a5.25,5.25,0,0,1,2.68-4.72,10.31,10.31,0,0,1,5.48-1.65,10.54,10.54,0,0,1,5.86,1.65A5.31,5.31,0,0,1,1076,103v51h33.15a4.85,4.85,0,0,1,4.08,2,8.44,8.44,0,0,1,0,9.69,4.85,4.85,0,0,1-4.08,2H1076V237.1q0,12.5,5.36,17.47t18.61,5h7.14a6.9,6.9,0,0,1,5.48,2.17,7.58,7.58,0,0,1,1.92,5.22,8.1,8.1,0,0,1-1.92,5.36,6.72,6.72,0,0,1-5.48,2.29Z" transform="translate(-8.95 -5.29)"/><path d="M1183.37,276.37q-16.06,0-28.43-6.12a47.76,47.76,0,0,1-19.38-17q-7-10.83-7-25.37v-28.3a44.38,44.38,0,0,1,6.63-23.59,49.22,49.22,0,0,1,17.72-17.21,48.72,48.72,0,0,1,65.41,16.07,44.33,44.33,0,0,1,6.63,24.22q0,9.69-3.32,14a13.05,13.05,0,0,1-8.29,5.23,59.35,59.35,0,0,1-10.58.89h-57.62v9.44q0,15.3,11,24.22t27.79,8.92q10.2,0,15.81-2.55a42,42,0,0,0,8.8-5.09,9.81,9.81,0,0,1,6-2.55,5.62,5.62,0,0,1,3.7,1.4,10.15,10.15,0,0,1,2.55,3.19,7.51,7.51,0,0,1,.89,3.31c0,1.87-1.53,4.17-4.59,6.88s-7.48,5.06-13.26,7A63.93,63.93,0,0,1,1183.37,276.37ZM1145.13,207h51q7.65,0,10.2-1.65t2.55-7a31,31,0,0,0-4.08-15.42,34.4,34.4,0,0,0-11.22-12,29.39,29.39,0,0,0-16.57-4.71,30.56,30.56,0,0,0-15.94,4.33,34.16,34.16,0,0,0-11.6,11.22,28.58,28.58,0,0,0-4.33,15.55Z" transform="translate(-8.95 -5.29)"/><path d="M1285.37,276.62a7.88,7.88,0,0,1-4.21-1,8.34,8.34,0,0,1-2.93-4.08L1238.7,164.94a9.3,9.3,0,0,1-.76-2.17,8.73,8.73,0,0,1-.26-1.65,5.65,5.65,0,0,1,1.53-4,11.53,11.53,0,0,1,3.83-2.67,11.22,11.22,0,0,1,4.59-1,7.17,7.17,0,0,1,3.57,1,4.66,4.66,0,0,1,2.29,2.8l32.64,90.78,26-82.87a5.71,5.71,0,0,1,2.55-3.32,8.59,8.59,0,0,1,4.33-1,8.08,8.08,0,0,1,4.08,1,5.71,5.71,0,0,1,2.55,3.32l25.25,83.89,33.14-91.8q1.28-3.82,5.87-3.82a11.6,11.6,0,0,1,4.46,1,12.25,12.25,0,0,1,4,2.55,5.18,5.18,0,0,1,1.53,3.82,6.76,6.76,0,0,1-.38,2.17c-.25.76-.47,1.4-.64,1.91l-39.77,107.6a5.12,5.12,0,0,1-2.68,3.19,9.32,9.32,0,0,1-4,.89,8.6,8.6,0,0,1-4.34-1,5.81,5.81,0,0,1-2.55-2.8L1319,189.93l-26.26,81.59a6.54,6.54,0,0,1-2.8,3.83A8.53,8.53,0,0,1,1285.37,276.62Z" transform="translate(-8.95 -5.29)"/><path d="M1446.26,276.37q-14.54,0-24.61-8.29t-10.07-25.37q0-14,7.52-21.54T1440,210.71a146.16,146.16,0,0,1,31-2.93h13v-5.87a47.66,47.66,0,0,0-2.93-16.44,29.7,29.7,0,0,0-9.43-13.26q-6.51-5.22-17.72-5.23a44.36,44.36,0,0,0-13.77,1.79,40.6,40.6,0,0,0-8.42,3.69,10.29,10.29,0,0,1-5.1,1.92,5.7,5.7,0,0,1-5-3.06,10.83,10.83,0,0,1-1.91-5.61q0-3.57,5.35-6.51a54.06,54.06,0,0,1,13.39-4.84,68.27,68.27,0,0,1,15.94-1.91q17.07,0,27.15,7a39.75,39.75,0,0,1,14.54,18.23,64.36,64.36,0,0,1,4.46,24V268a6,6,0,0,1-2.17,4.72,8.72,8.72,0,0,1-6,1.91,8.57,8.57,0,0,1-5.48-1.91,5.78,5.78,0,0,1-2.43-4.72V256.74a67.7,67.7,0,0,1-15.81,13.64Q1459.26,276.37,1446.26,276.37Zm4.08-14A32.09,32.09,0,0,0,1466.4,258,42.8,42.8,0,0,0,1479,247.43q5-6.24,5-11.86V219.25h-10.71a161.25,161.25,0,0,0-21.8,1.41q-10.32,1.4-16.83,6t-6.5,14.53q0,11,6.5,16.07A24.66,24.66,0,0,0,1450.34,262.34Z" transform="translate(-8.95 -5.29)"/><path d="M1525.05,333.74a9.29,9.29,0,0,1-5.61-1.66c-1.53-1.1-2.3-3-2.3-5.73a10.76,10.76,0,0,1,1.28-5.36,4.31,4.31,0,0,1,4.08-2.29,20.55,20.55,0,0,0,11.73-3.83A41.42,41.42,0,0,0,1544.68,304a93.27,93.27,0,0,0,8.67-15.81,107.77,107.77,0,0,0,6.12-18.75L1517.65,162.9a8.39,8.39,0,0,1-.51-2.55,5.38,5.38,0,0,1,1.66-3.95,14.52,14.52,0,0,1,4.08-2.81,10.55,10.55,0,0,1,4.46-1.14,7.75,7.75,0,0,1,3.7.89,4.33,4.33,0,0,1,2.17,2.68l34.93,93.83L1601,156a5.53,5.53,0,0,1,2.3-2.68,6.49,6.49,0,0,1,3.31-.89,12.72,12.72,0,0,1,8.54,3.82,6.13,6.13,0,0,1,1.66,4.34,5,5,0,0,1-.51,2.29l-39.52,106.84q-3.82,10.2-8.16,21.42a135.19,135.19,0,0,1-10.07,20.78,54.21,54.21,0,0,1-13.9,15.68Q1536.52,333.74,1525.05,333.74Z" transform="translate(-8.95 -5.29)"/><path d="M1635.2,276.11a12,12,0,0,1-12-11.73,11.75,11.75,0,0,1,12-12,11,11,0,0,1,8,3.44,11.6,11.6,0,0,1,3.45,8.54,11.4,11.4,0,0,1-3.45,8.16A10.81,10.81,0,0,1,1635.2,276.11Z" transform="translate(-8.95 -5.29)"/><path d="M1681.1,118.28a11.46,11.46,0,0,1-8-3.19,9.93,9.93,0,0,1-3.44-7.52,9.54,9.54,0,0,1,3.44-7.39,11.74,11.74,0,0,1,8-3.06,11.24,11.24,0,0,1,7.9,3.06,9.68,9.68,0,0,1,3.32,7.39,10.09,10.09,0,0,1-3.32,7.52A11,11,0,0,1,1681.1,118.28Zm-.26,156.3a8.59,8.59,0,0,1-5.74-2,5.92,5.92,0,0,1-2.42-4.59V160.35a5.4,5.4,0,0,1,2.42-4.72,10,10,0,0,1,5.74-1.65,10.38,10.38,0,0,1,6,1.65,5.38,5.38,0,0,1,2.43,4.72V268a5.9,5.9,0,0,1-2.43,4.59A8.92,8.92,0,0,1,1680.84,274.58Z" transform="translate(-8.95 -5.29)"/><path d="M1764.73,276.37a45.45,45.45,0,0,1-24.1-6.76,51.58,51.58,0,0,1-17.72-17.85,45.65,45.65,0,0,1-6.63-23.84V200.38a45.73,45.73,0,0,1,6.5-23.71,49.84,49.84,0,0,1,17.6-17.59,48,48,0,0,1,48.45-.13,50.23,50.23,0,0,1,17.72,17.34,45.28,45.28,0,0,1,6.63,24.09v27.54a45.91,45.91,0,0,1-6.63,23.72,51.34,51.34,0,0,1-17.72,18A45.45,45.45,0,0,1,1764.73,276.37Zm0-15.3a28.44,28.44,0,0,0,16.06-4.72A35.58,35.58,0,0,0,1792.27,244a32.13,32.13,0,0,0,4.33-16.07V200.38a31.53,31.53,0,0,0-4.2-15.81,34.9,34.9,0,0,0-11.48-12.11,29.12,29.12,0,0,0-16.19-4.71,28.49,28.49,0,0,0-16.06,4.71,36.43,36.43,0,0,0-11.48,12.11,30.77,30.77,0,0,0-4.33,15.81v27.54a32.93,32.93,0,0,0,4.2,16.07,33.66,33.66,0,0,0,11.61,12.36A29.22,29.22,0,0,0,1764.73,261.07Z" transform="translate(-8.95 -5.29)"/></svg>