<?xml version="1.0" standalone="no"?>
<!DOCTYPE svg PUBLIC "-//W3C//DTD SVG 20010904//EN"
 "http://www.w3.org/TR/2001/REC-SVG-20010904/DTD/svg10.dtd">
<svg version="1.0" xmlns="http://www.w3.org/2000/svg"
 width="700.000000pt" height="700.000000pt" viewBox="0 0 700.000000 700.000000"
 preserveAspectRatio="xMidYMid meet">
<metadata>
Created by potrace 1.14, written by Peter Selinger 2001-2017
</metadata>
<g transform="translate(0.000000,700.000000) scale(0.100000,-0.100000)"
fill="#000000" stroke="none">
<path d="M3868 6955 c-53 -53 -73 -103 -77 -186 -3 -79 13 -131 55 -173 36
-36 121 -74 177 -79 52 -5 130 17 179 51 133 91 131 305 -3 398 -40 28 -48 29
-163 32 l-121 3 -47 -46z"/>
<path d="M3350 6769 c-76 -15 -370 -79 -449 -99 -91 -23 -405 -139 -455 -168
-17 -10 -32 -26 -34 -36 -5 -23 25 -56 50 -56 11 0 83 27 161 59 210 87 399
144 572 171 39 6 90 16 115 21 25 6 52 12 60 14 8 2 27 4 42 4 35 1 70 38 66
71 -3 22 -7 25 -48 25 -25 0 -61 -2 -80 -6z"/>
<path d="M4598 6707 l-27 -34 67 -26 c37 -15 114 -36 172 -47 111 -22 208 -49
380 -107 113 -38 337 -129 357 -145 17 -14 70 0 93 25 19 20 19 20 -13 44
-121 91 -745 302 -942 319 -59 6 -60 5 -87 -29z"/>
<path d="M1910 6390 c-49 -7 -119 -39 -151 -71 -47 -47 -59 -81 -59 -164 0
-105 25 -154 104 -209 52 -35 64 -39 140 -43 l83 -6 61 42 c69 47 100 85 123
154 13 37 14 59 8 86 -21 81 -76 148 -152 187 -52 27 -88 32 -157 24z"/>
<path d="M6017 6346 c-122 -51 -171 -118 -170 -234 0 -65 4 -78 30 -115 17
-23 52 -57 79 -75 l49 -34 105 4 c94 3 110 6 153 31 55 33 102 93 118 151 35
131 -89 275 -251 291 -44 5 -66 1 -113 -19z"/>
<path d="M3620 6352 c0 -5 -28 -47 -63 -93 -35 -46 -96 -131 -136 -189 -78
-113 -120 -170 -178 -238 -29 -36 -41 -43 -62 -39 -41 8 -492 165 -515 180
-34 21 -103 40 -149 41 l-42 1 -15 -58 c-22 -88 -33 -80 220 -156 152 -46 420
-145 420 -156 0 -5 -13 -32 -28 -59 l-29 -49 31 -27 c41 -36 91 -61 108 -55 7
3 26 28 43 56 16 27 39 59 50 69 19 18 23 18 63 4 24 -8 64 -15 89 -17 45 -2
47 -1 55 32 15 55 4 76 -53 99 l-50 21 18 31 c9 17 56 83 102 148 132 182 261
371 261 382 0 8 -119 80 -133 80 -4 0 -7 -4 -7 -8z"/>
<path d="M4368 6337 c-69 -41 -68 -56 14 -166 40 -53 75 -98 78 -101 3 -3 42
-57 87 -120 78 -112 133 -204 133 -225 0 -6 -21 -18 -47 -28 -80 -28 -79 -27
-48 -96 18 -39 35 -61 45 -61 9 0 47 11 85 24 38 13 73 22 79 20 10 -4 70 -82
96 -123 11 -18 45 -5 102 40 41 33 47 49 22 70 -8 7 -24 30 -35 51 -15 29 -17
39 -7 43 7 2 63 19 123 38 61 19 169 56 240 82 72 26 163 56 203 68 66 20 72
24 72 49 0 14 -9 46 -19 71 l-19 45 -309 -105 c-169 -57 -329 -111 -355 -120
-45 -16 -48 -16 -69 3 -12 10 -37 42 -55 69 -18 28 -87 124 -153 215 -66 91
-134 191 -151 223 -35 65 -52 70 -112 34z"/>
<path d="M1415 5827 c-52 -43 -69 -61 -164 -163 -141 -153 -254 -299 -366
-478 -70 -111 -84 -139 -76 -155 21 -38 84 -43 102 -8 7 12 15 24 18 27 3 3
15 21 25 40 79 141 301 421 475 598 56 56 101 107 101 113 0 9 -57 70 -64 69
0 -1 -23 -20 -51 -43z"/>
<path d="M5690 5702 c-25 -30 -66 -86 -92 -125 l-47 -70 42 -30 c23 -17 48
-37 55 -44 19 -19 25 -17 54 20 15 17 36 43 48 57 29 33 110 146 110 153 0 11
-51 54 -89 75 l-36 20 -45 -56z"/>
<path d="M3984 5650 c-42 -9 -145 -74 -167 -105 -10 -14 -26 -49 -36 -78 -15
-45 -22 -52 -47 -55 -165 -19 -471 -106 -622 -177 -40 -19 -77 -35 -81 -35 -5
0 -24 13 -42 30 -57 50 -179 75 -271 55 -40 -9 -105 -49 -136 -84 -62 -69 -78
-166 -42 -244 13 -26 21 -50 19 -52 -2 -3 -45 -46 -95 -97 -50 -51 -118 -127
-151 -168 -68 -84 -189 -261 -198 -290 -5 -16 -16 -19 -90 -18 -76 0 -89 -3
-132 -29 -26 -16 -63 -49 -81 -73 -33 -43 -34 -45 -30 -135 3 -83 6 -96 33
-135 17 -24 49 -55 72 -69 l43 -26 -6 -49 c-3 -27 -8 -58 -10 -70 -17 -88 -23
-539 -8 -581 12 -34 8 -55 -10 -55 -28 0 -106 -81 -116 -121 -13 -48 -4 -175
14 -204 45 -69 141 -124 222 -128 l48 -2 44 -79 c92 -168 189 -299 326 -441
89 -93 96 -102 89 -130 -30 -131 64 -269 204 -299 85 -19 154 -7 214 36 13 9
37 1 120 -40 57 -28 145 -66 194 -85 101 -38 311 -92 395 -101 101 -11 116
-16 133 -46 69 -115 209 -166 345 -124 46 14 69 30 117 80 54 56 65 62 110 67
198 22 535 116 687 193 65 33 75 35 108 25 21 -6 68 -11 105 -11 64 0 71 2
124 42 31 23 59 47 64 54 4 7 15 21 25 30 13 13 18 39 20 105 5 106 -9 140
-79 203 -105 94 -273 91 -372 -6 -80 -78 -101 -187 -54 -277 l24 -48 -101 -41
c-128 -52 -269 -97 -388 -123 -118 -26 -113 -25 -180 -33 l-58 -7 0 28 c-1 61
-53 139 -125 183 -45 28 -203 32 -256 6 -73 -35 -139 -123 -139 -186 0 -16 -2
-30 -4 -30 -3 0 -51 9 -108 21 -57 11 -114 23 -128 25 -62 12 -261 78 -358
119 -140 59 -140 59 -124 85 14 24 16 150 2 200 -13 46 -63 98 -119 124 -35
16 -66 21 -131 21 -78 0 -90 -3 -143 -33 l-58 -32 -87 87 c-128 129 -214 246
-302 410 l-33 62 50 51 c62 62 85 107 85 166 0 77 -61 172 -133 210 -17 9 -61
19 -98 22 l-66 7 -12 75 c-11 72 -11 389 0 420 3 8 9 40 12 70 11 91 15 114
19 126 2 6 25 14 50 17 134 19 236 129 236 255 0 62 -18 102 -69 155 l-36 38
22 38 c12 21 61 94 108 162 84 122 287 349 311 349 7 0 30 -10 51 -22 54 -33
170 -32 231 0 49 25 63 38 114 102 52 65 74 168 45 207 -13 18 84 62 321 144
57 20 229 53 323 63 55 6 57 5 69 -23 16 -39 65 -88 112 -112 129 -66 349 -6
389 106 15 40 10 39 116 24 147 -20 335 -73 496 -141 88 -37 98 -44 91 -62 -4
-12 -9 -46 -11 -77 -10 -123 91 -233 232 -255 75 -12 121 -4 179 30 119 70
161 203 103 330 -37 81 -107 123 -220 132 -74 7 -75 6 -138 -32 -35 -22 -65
-42 -67 -46 -7 -15 -29 -8 -165 46 -176 71 -399 135 -512 147 -115 12 -115 13
-115 49 0 112 -173 219 -306 190z"/>
<path d="M1909 5528 c-2 -166 1 -454 6 -478 2 -13 7 -44 10 -70 7 -59 -10 -76
-91 -92 -32 -6 -122 -28 -199 -48 -77 -21 -180 -47 -230 -59 -185 -44 -195
-48 -195 -85 0 -12 7 -45 15 -73 l15 -50 37 9 c21 5 153 38 293 73 140 35 281
72 313 81 31 10 59 15 62 13 4 -5 12 -70 14 -116 1 -22 5 -23 81 -23 l80 0 0
95 c0 109 -7 101 119 133 l63 15 -6 46 c-7 53 -30 91 -54 91 -10 0 -44 -7 -75
-15 -32 -8 -59 -15 -61 -15 -11 0 -27 199 -31 375 -2 116 -6 221 -8 235 -3 14
-5 31 -6 38 -1 8 -23 12 -76 12 l-75 0 -1 -92z"/>
<path d="M615 4763 c-40 -11 -125 -66 -155 -99 -42 -48 -70 -107 -70 -147 0
-79 56 -172 128 -214 43 -25 55 -28 138 -27 80 1 98 5 144 30 97 53 136 126
127 239 -7 94 -48 155 -132 197 -39 21 -141 32 -180 21z"/>
<path d="M1030 4114 c-66 -47 -66 -47 -31 -98 32 -47 184 -233 205 -251 6 -5
29 -32 51 -60 22 -27 56 -65 75 -85 19 -19 49 -53 67 -76 l32 -40 -27 -35
c-15 -18 -36 -43 -47 -55 -11 -12 -44 -49 -74 -83 -30 -34 -68 -77 -85 -94
-17 -18 -58 -64 -91 -102 -90 -104 -118 -136 -137 -154 -13 -13 -14 -19 -5
-31 18 -24 103 -90 115 -90 16 0 149 139 248 260 16 19 31 37 34 40 3 3 41 47
85 98 43 50 84 92 91 92 12 0 55 -31 86 -62 10 -10 23 -18 29 -18 11 0 119 69
119 76 0 3 -22 34 -50 70 -27 36 -50 73 -50 83 0 10 23 44 50 75 28 31 50 59
50 62 0 8 -21 27 -73 67 l-47 36 -43 -40 c-70 -66 -70 -66 -122 -2 -26 32 -77
92 -114 133 -37 41 -96 108 -131 149 -86 100 -148 161 -163 160 -6 0 -28 -12
-47 -25z"/>
<path d="M431 4022 c-6 -15 -13 -54 -16 -87 -2 -33 -9 -91 -14 -130 -12 -85
-12 -523 -1 -620 5 -38 12 -96 15 -127 l6 -58 40 0 40 0 -7 268 c-8 298 -8
301 0 427 3 50 8 140 12 200 l6 110 -35 22 -35 22 -11 -27z"/>
<path d="M595 2756 c-55 -17 -80 -32 -127 -74 -55 -49 -78 -99 -78 -167 0 -74
19 -115 82 -179 62 -61 123 -86 212 -87 73 -1 171 44 214 99 92 115 52 306
-76 371 -83 41 -167 55 -227 37z"/>
<path d="M1211 2360 c-18 -85 -16 -98 22 -105 71 -13 297 -68 382 -91 50 -14
133 -37 185 -51 52 -13 99 -28 104 -33 4 -4 8 -156 8 -337 0 -180 2 -343 5
-360 5 -33 6 -33 63 -33 94 0 90 -17 90 346 l0 314 84 0 83 0 18 45 c9 25 15
51 12 59 -3 7 -44 23 -91 36 l-86 23 0 93 0 94 -70 0 -70 0 0 -55 0 -55 -37 1
c-21 0 -76 10 -123 23 -252 69 -529 136 -559 136 -5 0 -14 -23 -20 -50z"/>
<path d="M845 1996 c-17 -12 -15 -18 34 -100 121 -200 338 -474 503 -633 101
-98 101 -98 143 -70 l36 24 -118 120 c-142 143 -230 241 -311 348 -72 96 -212
305 -212 317 0 13 -54 9 -75 -6z"/>
<path d="M4864 1556 c-18 -20 -83 -106 -93 -123 -8 -15 -14 -14 -62 5 -107 41
-110 41 -151 -30 l-36 -63 30 -19 c16 -10 46 -25 66 -32 64 -22 54 -45 -124
-290 -87 -121 -197 -272 -245 -336 -48 -64 -95 -130 -105 -147 -18 -31 -19
-31 -105 -31 l-87 0 -67 98 c-80 116 -92 134 -171 237 -33 44 -75 103 -94 130
-18 28 -68 97 -110 155 -43 58 -85 119 -93 136 l-16 32 60 22 c58 21 61 23 55
51 -7 39 -48 99 -66 99 -8 0 -43 -10 -78 -22 -57 -21 -64 -22 -89 -8 -15 9
-38 31 -50 50 -43 65 -47 70 -61 70 -21 0 -121 -63 -122 -77 0 -6 9 -32 20
-58 11 -26 20 -54 20 -64 0 -13 -66 -38 -320 -121 -255 -84 -320 -108 -320
-122 0 -34 41 -128 56 -128 15 0 336 106 559 185 104 37 148 46 160 33 10 -11
144 -199 243 -341 64 -93 147 -211 184 -264 37 -52 70 -107 73 -123 7 -33 -20
-107 -44 -120 -16 -8 -118 -6 -201 4 -113 15 -202 29 -256 41 -34 8 -73 16
-86 19 -102 18 -472 140 -674 222 -13 6 -64 -44 -64 -61 0 -30 350 -159 585
-215 129 -31 197 -45 265 -56 19 -3 71 -12 115 -19 44 -7 138 -13 209 -14 71
-1 137 -6 146 -11 10 -5 28 -37 41 -71 47 -128 110 -168 269 -170 88 -1 102 1
132 22 66 46 104 102 128 192 l13 47 56 1 c31 0 65 2 76 4 11 2 40 7 65 10
217 28 372 66 638 154 213 71 452 174 452 195 0 6 -10 23 -23 38 l-22 27 -225
-89 c-306 -121 -497 -179 -680 -206 -19 -3 -86 -14 -148 -25 -108 -18 -114
-18 -136 -2 -27 20 -76 86 -76 102 0 11 96 150 235 341 51 69 105 144 121 166
152 216 166 233 194 234 13 0 566 -176 672 -215 37 -13 38 -13 58 21 14 22 20
46 18 71 -4 45 11 38 -365 160 -150 48 -273 93 -273 99 0 5 9 29 20 52 27 55
25 78 -7 108 -43 40 -76 54 -89 40z"/>
<path d="M5588 1513 c-66 -43 -69 -29 28 -159 58 -76 102 -124 116 -124 14 0
118 72 118 82 0 13 -57 96 -94 137 -67 74 -95 101 -103 101 -4 0 -34 -17 -65
-37z"/>
<path d="M1850 1103 c-100 -49 -172 -150 -172 -238 0 -129 129 -246 274 -247
79 0 142 26 198 82 55 55 70 93 69 182 0 99 -25 149 -93 192 -102 65 -186 74
-276 29z"/>
<path d="M6075 1090 c-3 -5 -20 -10 -36 -10 -60 0 -155 -70 -178 -132 -15 -41
-16 -190 -1 -218 44 -82 163 -142 264 -133 123 10 256 135 262 247 4 83 -72
197 -158 236 -46 21 -142 27 -153 10z"/>
</g>
</svg>
